<svg xmlns="http://www.w3.org/2000/svg" viewBox="0 0 353.1 308.11"><defs><style>.cls-1{fill:#c5a716;}</style></defs><title>Logo</title><g id="圖層_2" data-name="圖層 2"><g id="圖層_1-2" data-name="圖層 1"><path class="cls-1" d="M206.1,74.75a1.7,1.7,0,0,1-2.06-.12c-.68-1.07-.24-2,.22-3-.31-1.47,2.56-2.74.28-4.34-4.56.76-9.33.88-12.91,4.46-1.11.34-1.26,1.46-1.82,2.25v0c-1.8,1.1-3.28,2.64-5.12,3.68l-.21.1c-1.7.8-2.71,2.6-4.57,3.14-3.57,1.64-5.81,4.78-8.45,7.48A11.31,11.31,0,0,0,169.38,94c-.36.66-.82,1.31-1.17,2-1.21,1.51-2.21,3.23-4,4.2l-1.68,2.19h0L161,103.81h0c-.8.66-2.21,1.08-1.86,2.35.23.82,1.26.21,1.93,0l.87-1.43,1.29-1.12a1.49,1.49,0,0,0,1-.23l1.11-.37a1,1,0,0,0,.35.37,3.09,3.09,0,0,0,1-.44,4,4,0,0,0,1.66,0,2.16,2.16,0,0,0,.36-.22l-.07.19c-.22.51-.43,1-.6,1.53a6.24,6.24,0,0,1-.81,2.58q-1.49,2.52-3,5h0c-1.84.83-1.58,1.74-.1,2.68l.76-.69a2.91,2.91,0,0,0,1.56-1.65h0c6.9-3,12.42-7.94,17.94-12.88,4.28-3.83,8.21-8.09,13.52-10.61,4.65-2.64,8.95-5.57,9.72-11.49C207.13,76.58,207.55,75.11,206.1,74.75Z"/><path class="cls-1" d="M92.26,0V177.15H269.41V0ZM257.9,165.63H103.78V11.52H257.9Z"/><path class="cls-1" d="M79.22,256a15.59,15.59,0,0,1-6.47,1.2c-6.9,0-12.1-4.4-12.1-12.43,0-7.67,5.2-12.87,12.79-12.87A13.24,13.24,0,0,1,79.26,233l-.76,2.58a11.56,11.56,0,0,0-5-1c-5.74,0-9.56,3.68-9.56,10.11,0,6,3.46,9.85,9.42,9.85a12.63,12.63,0,0,0,5.16-1Z"/><path class="cls-1" d="M98.56,249.09,96,256.8H92.75l8.32-24.5h3.82l8.36,24.5h-3.38l-2.62-7.71Zm8-2.47-2.39-7.05c-.55-1.6-.91-3-1.28-4.47h-.07c-.36,1.45-.76,2.94-1.23,4.43l-2.4,7.09Z"/><path class="cls-1" d="M128.12,232.3h13.19V235h-10v8.15h9.26v2.61h-9.26V256.8h-3.16Z"/><path class="cls-1" d="M157.09,232.3h13.19V235h-10v8.15h9.27v2.61h-9.27V256.8h-3.16Z"/><path class="cls-1" d="M187.18,249.09l-2.54,7.71h-3.27l8.32-24.5h3.82l8.36,24.5h-3.38l-2.62-7.71Zm8-2.47-2.4-7.05c-.55-1.6-.91-3-1.27-4.47h-.08c-.36,1.45-.76,2.94-1.23,4.43l-2.4,7.09Z"/><path class="cls-1" d="M219.9,232.3v24.5h-3.16V232.3Z"/><path class="cls-1" d="M236.69,256.8V232.3h3.46L248,244.69a71.29,71.29,0,0,1,4.39,8l.08,0c-.29-3.27-.37-6.25-.37-10.07V232.3h3v24.5h-3.19l-7.78-12.43a77.17,77.17,0,0,1-4.58-8.18l-.11,0c.18,3.09.25,6,.25,10.1V256.8Z"/><path class="cls-1" d="M275.84,249.09l-2.54,7.71H270l8.32-24.5h3.82l8.36,24.5h-3.38l-2.62-7.71Zm8-2.47-2.4-7.05c-.54-1.6-.9-3-1.27-4.47h-.07c-.36,1.45-.76,2.94-1.24,4.43l-2.39,7.09Z"/><path class="cls-1" d="M16.15,307.07a13.51,13.51,0,0,1-5.63,1c-6,0-10.52-3.82-10.52-10.8,0-6.67,4.52-11.19,11.12-11.19a11.41,11.41,0,0,1,5.06.95l-.66,2.24a10,10,0,0,0-4.3-.88c-5,0-8.31,3.19-8.31,8.78,0,5.21,3,8.56,8.18,8.56a11,11,0,0,0,4.49-.88Z"/><path class="cls-1" d="M46.93,296.89c0,7.34-4.46,11.22-9.89,11.22-5.63,0-9.58-4.36-9.58-10.8,0-6.77,4.21-11.19,9.89-11.19S46.93,290.57,46.93,296.89Zm-16.53.35c0,4.55,2.47,8.63,6.8,8.63S44,301.86,44,297c0-4.23-2.21-8.66-6.79-8.66S30.4,292.57,30.4,297.24Z"/><path class="cls-1" d="M60.3,286.47H71.77v2.3H63.05v7.08h8.06v2.28H63.05v9.64H60.3Z"/><path class="cls-1" d="M85.49,286.47H97v2.3H88.24v7.08h8.05v2.28H88.24v9.64H85.49Z"/><path class="cls-1" d="M121.7,297.78h-8.28v7.68h9.23v2.31h-12v-21.3h11.51v2.3h-8.76v6.73h8.28Z"/><path class="cls-1" d="M147.05,297.78h-8.28v7.68H148v2.31H136v-21.3h11.5v2.3h-8.75v6.73h8.28Z"/><path class="cls-1" d="M194.08,306.82a20,20,0,0,1-6.55,1.17,10,10,0,0,1-10.93-10.75c0-6.35,4.39-11,11.53-11a13.17,13.17,0,0,1,5.31,1l-.66,2.25a11,11,0,0,0-4.71-.92c-5.18,0-8.56,3.23-8.56,8.57s3.25,8.59,8.21,8.59a8.91,8.91,0,0,0,3.67-.57v-6.35h-4.33v-2.21h7Z"/><path class="cls-1" d="M211.52,301.07l-2.21,6.7h-2.85l7.24-21.3H217l7.27,21.3h-2.94l-2.28-6.7Zm7-2.15-2.08-6.13c-.47-1.39-.79-2.66-1.11-3.89h-.06c-.32,1.26-.66,2.56-1.07,3.85l-2.09,6.17Z"/><path class="cls-1" d="M237.21,286.47H240v19h9.11v2.31H237.21Z"/><path class="cls-1" d="M261.93,286.47h2.75v19h9.1v2.31H261.93Z"/><path class="cls-1" d="M297.67,297.78h-8.28v7.68h9.23v2.31h-12v-21.3h11.5v2.3h-8.75v6.73h8.28Z"/><path class="cls-1" d="M312,286.75a29,29,0,0,1,5.27-.44c2.94,0,4.84.54,6.17,1.74a5.3,5.3,0,0,1,1.67,4,5.6,5.6,0,0,1-4,5.44v.09c1.64.57,2.62,2.09,3.13,4.3a34.07,34.07,0,0,0,1.64,5.85H323a28.34,28.34,0,0,1-1.43-5.09c-.63-2.94-1.77-4.05-4.26-4.14h-2.59v9.23H312Zm2.75,9.7h2.81c2.94,0,4.8-1.61,4.8-4,0-2.75-2-4-4.9-4a11.12,11.12,0,0,0-2.71.25Z"/><path class="cls-1" d="M343.18,307.77v-9l-6.73-12.26h3.13l3,5.87c.82,1.62,1.45,2.91,2.12,4.4h.06c.6-1.39,1.33-2.78,2.15-4.4l3.06-5.87h3.13L346,298.7v9.07Z"/></g></g></svg>