<svg xmlns="http://www.w3.org/2000/svg" viewBox="0 0 216.01 40"><defs><style>.cls-1{fill:#c5a716;}</style></defs><title>資產 1</title><g id="圖層_2" data-name="圖層 2"><g id="圖層_1-2" data-name="圖層 1"><path class="cls-1" d="M25.7,16.88a.38.38,0,0,1-.46,0,.66.66,0,0,1,.05-.68c-.07-.33.58-.62.06-1a4.83,4.83,0,0,0-2.91,1c-.26.08-.29.33-.42.51h0c-.41.25-.75.59-1.16.83l-.05,0c-.38.18-.61.59-1,.71A6.86,6.86,0,0,0,17.88,20a2.56,2.56,0,0,0-.47,1.28c-.08.15-.18.3-.26.45a3.4,3.4,0,0,1-.9.95l-.38.49h0l-.34.32h0c-.18.15-.5.25-.42.53s.28.05.43,0l.2-.32L16,23.4a.33.33,0,0,0,.22,0l.25-.09a.34.34,0,0,0,.08.09.87.87,0,0,0,.24-.1.92.92,0,0,0,.37,0l.08-.05v.05a3.45,3.45,0,0,0-.14.34,1.46,1.46,0,0,1-.18.58c-.23.38-.45.76-.67,1.14h0c-.42.19-.36.39,0,.61l.17-.16a.64.64,0,0,0,.35-.37h0a15.34,15.34,0,0,0,4.05-2.91,13.86,13.86,0,0,1,3.05-2.4,3.55,3.55,0,0,0,2.2-2.59C25.94,17.29,26,17,25.7,16.88Z"/><path class="cls-1" d="M0,0V40H40V0ZM37.4,37.4H2.6V2.6H37.4Z"/><path class="cls-1" d="M58.92,17.91a11.4,11.4,0,0,1-4.81.9c-5.13,0-9-3.27-9-9.24C45.12,3.86,49,0,54.63,0A9.8,9.8,0,0,1,59,.81l-.57,1.92A8.58,8.58,0,0,0,54.71,2C50.44,2,47.6,4.7,47.6,9.48c0,4.46,2.57,7.33,7,7.33a9.43,9.43,0,0,0,3.84-.76Z"/><path class="cls-1" d="M73.3,12.78l-1.89,5.73H69L75.16.3H78l6.22,18.21H81.7l-1.94-5.73Zm6-1.84L77.49,5.7c-.41-1.19-.68-2.27-.95-3.32h-.05c-.27,1.08-.57,2.19-.92,3.29l-1.78,5.27Z"/><path class="cls-1" d="M95.27.3h9.81v2H97.62V8.32h6.89v1.95H97.62v8.24H95.27Z"/><path class="cls-1" d="M116.81.3h9.81v2h-7.46V8.32h6.89v1.95h-6.89v8.24h-2.35Z"/><path class="cls-1" d="M139.18,12.78l-1.89,5.73h-2.43L141.05.3h2.84l6.21,18.21h-2.51l-2-5.73Zm6-1.84L143.37,5.7c-.4-1.19-.67-2.27-.94-3.32h-.06c-.27,1.08-.56,2.19-.92,3.29l-1.78,5.27Z"/><path class="cls-1" d="M163.51.3V18.51h-2.35V.3Z"/><path class="cls-1" d="M176,18.51V.3h2.57l5.83,9.21a49.56,49.56,0,0,1,3.27,5.92l.06,0c-.22-2.43-.27-4.65-.27-7.48V.3h2.21V18.51h-2.37L181.5,9.27a58.58,58.58,0,0,1-3.4-6.08l-.08,0c.13,2.29.19,4.48.19,7.51v7.78Z"/><path class="cls-1" d="M205.09,12.78l-1.89,5.73h-2.43L207,.3h2.84L216,18.51H213.5l-1.95-5.73Zm6-1.84L209.28,5.7c-.4-1.19-.67-2.27-.94-3.32h-.06c-.27,1.08-.56,2.19-.92,3.29l-1.78,5.27Z"/><path class="cls-1" d="M53.82,39.5a6.6,6.6,0,0,1-2.71.5A4.81,4.81,0,0,1,46,34.8a5.11,5.11,0,0,1,5.36-5.39,5.49,5.49,0,0,1,2.43.46L53.51,31a4.87,4.87,0,0,0-2.07-.43c-2.4,0-4,1.54-4,4.23,0,2.51,1.45,4.12,3.94,4.12a5.26,5.26,0,0,0,2.16-.42Z"/><path class="cls-1" d="M68.63,34.6c0,3.53-2.14,5.4-4.76,5.4s-4.61-2.1-4.61-5.2c0-3.26,2-5.39,4.76-5.39S68.63,31.56,68.63,34.6Zm-7.95.17c0,2.19,1.18,4.15,3.27,4.15s3.28-1.93,3.28-4.26c0-2-1.06-4.17-3.27-4.17S60.68,32.52,60.68,34.77Z"/><path class="cls-1" d="M75.07,29.58h5.52v1.11h-4.2V34.1h3.88v1.09H76.39v4.64H75.07Z"/><path class="cls-1" d="M87.19,29.58h5.52v1.11H88.52V34.1h3.87v1.09H88.52v4.64H87.19Z"/><path class="cls-1" d="M104.63,35h-4v3.69h4.44v1.11H99.32V29.58h5.53v1.11h-4.21v3.24h4Z"/><path class="cls-1" d="M116.83,35h-4v3.69h4.44v1.11h-5.76V29.58h5.53v1.11h-4.21v3.24h4Z"/><path class="cls-1" d="M139.46,39.38a9.6,9.6,0,0,1-3.15.56,4.81,4.81,0,0,1-5.26-5.17c0-3.06,2.11-5.3,5.55-5.3a6.2,6.2,0,0,1,2.56.48L138.84,31a5.21,5.21,0,0,0-2.27-.45,3.84,3.84,0,0,0-4.12,4.13c0,2.6,1.57,4.13,4,4.13a4.38,4.38,0,0,0,1.77-.27V35.51h-2.08V34.45h3.37Z"/><path class="cls-1" d="M147.86,36.61l-1.06,3.22h-1.37l3.48-10.25h1.6L154,39.83h-1.42l-1.09-3.22Zm3.36-1-1-3c-.23-.67-.38-1.28-.53-1.87h0c-.16.61-.32,1.23-.52,1.86l-1,3Z"/><path class="cls-1" d="M160.23,29.58h1.32v9.14h4.38v1.11h-5.7Z"/><path class="cls-1" d="M172.12,29.58h1.33v9.14h4.38v1.11h-5.71Z"/><path class="cls-1" d="M189.33,35h-4v3.69h4.45v1.11H184V29.58h5.54v1.11h-4.22v3.24h4Z"/><path class="cls-1" d="M196.22,29.72a13.5,13.5,0,0,1,2.54-.22,4.19,4.19,0,0,1,3,.84,2.59,2.59,0,0,1,.8,1.95,2.68,2.68,0,0,1-1.93,2.61V35A2.56,2.56,0,0,1,202.11,37a15.94,15.94,0,0,0,.79,2.81h-1.37a12.7,12.7,0,0,1-.68-2.45c-.31-1.41-.86-1.94-2.06-2h-1.25v4.44h-1.32Zm1.32,4.67h1.36c1.41,0,2.31-.78,2.31-2s-1-1.9-2.36-1.92a4.94,4.94,0,0,0-1.31.13Z"/><path class="cls-1" d="M211.24,39.83V35.48L208,29.58h1.5L211,32.41c.39.78.7,1.4,1,2.11h0c.28-.67.63-1.33,1-2.11l1.48-2.83H216l-3.44,5.89v4.36Z"/></g></g></svg>