<svg xmlns="http://www.w3.org/2000/svg" viewBox="0 0 1810.06 1387.43"><title>化學式</title><g id="圖層_2" data-name="圖層 2"><g id="圖層_1-2" data-name="圖層 1"><g id="Y8fuzz"><path d="M1018.81,909.36c-12.66,3.38-21.09,1.43-25.71-13.41-3.62,8.26-5.51,12.57-7.41,16.88q-47.62,108.24-95.42,216.42c-2.42,5.44-3.28,16.26-12.6,12.41-10.27-4.24-2.64-12.46-.1-18.27q50.11-114.62,100.87-228.93c3.18-7.17,2.67-12-2-18.28-43.34-58.37-86.19-117.09-129.59-175.41C844,697,838,693.93,833.09,693.4c-48.88-5.26-97.82-9.92-146.75-14.74-1.51-.15-3.46.33-4.45-.44-3.14-2.44-5.91-5.34-8.83-8.06,3.46-1.95,7-5.77,10.36-5.56,18.86,1.17,37.67,3.29,56.48,5.13,31.23,3.06,62.46,6,93.66,9.33,6.07.65,9.45-.46,12.15-6.65q48.56-111.54,97.66-222.86a61.69,61.69,0,0,0,2.09-6.76Q890,393,834.83,343.46c-3.38-3-7.6-5.62-9.78-9.37-1.83-3.16-1.27-7.72-1.78-11.66,3.69.53,8.28-.15,10.88,1.82,7.51,5.68,14.22,12.41,21.23,18.74,31.44,28.39,62.68,57,94.54,84.9,4.07,3.57,11.55,5.33,17.13,4.78,49.35-4.95,98.62-10.6,147.92-16.05.75-.08,1.64-.51,2.23-.25,4,1.76,7.83,3.66,11.74,5.52-3.28,2.78-6.29,7.52-9.88,8-25.51,3.47-51.13,6.12-76.72,8.93-24.46,2.69-48.92,5.48-73.42,7.76-6.8.64-10.59,3.09-13.41,9.59Q907.41,566.69,858.6,676.9c-3.15,7.09-2.73,12.15,1.95,18.46q71,95.85,141.25,192.21c4.76,6.54,9.32,8.93,17.65,7.93,46.23-5.52,92.55-10.33,138.84-15.35,5.5-.6,12.85-2.87,12.79,5.75,0,2.69-7,7.18-11.14,7.7q-56.91,7.06-114,12.72c-7.9.77-11.92,3.56-15.06,10.76q-50.48,115.67-101.53,231.08c-.92,2.07-1.48,4.76-3.1,6-2.88,2.16-6.44,3.39-9.71,5-.87-3.59-2.8-7.32-2.33-10.72.61-4.37,3-8.51,4.87-12.67q46.5-105.63,93-211.25Z"/><path d="M1385.33,616.14c-.16,9.75-.29,17.3-.44,26.28,20.31-2.81,41.84-5.81,63.38-8.76q87.17-12,174.34-23.88c6-.83,12.62-1.6,11.38,7.11-.37,2.58-6.33,5.69-10.07,6.25-38.57,5.71-77.21,10.94-115.83,16.33-41.24,5.76-82.44,11.75-123.73,17.14-7.39,1-11,4-13.91,10.73q-25.07,58.49-51.22,116.49c-1.69,3.74-6.86,5.92-10.41,8.82-.67-4.61-3.29-10-1.73-13.71,19.41-45.65,39.12-91.18,59.53-136.39,4.44-9.83,4.06-16.33-2.74-25.25-28.89-37.93-56.71-76.67-84.93-115.11-.67-.92-1.79-1.82-1.87-2.8-.36-4-.39-8-.53-12,4.08,1.4,9.84,1.55,12,4.41,21.93,29,44.7,57.46,64.25,88,12.37,19.33,25.34,23.95,47.76,20.27,70.58-11.57,141.61-20.4,212.47-30.29,2.25-.31,4.78-1.38,6.7-.71,3.71,1.29,7.09,3.57,10.6,5.44-2.83,2.77-5.34,7.44-8.56,8-19,3.3-38.21,5.63-57.33,8.29q-85.51,11.91-171,23.85C1389.75,615.21,1386.11,616,1385.33,616.14Z"/><path d="M769.31,365,813,265.53l16.19,7.11L771.94,403c-16.44-2.38-17.85-3.91-20.57-19.43-6.87-39.15-13.91-78.26-21.5-120.86L684.56,365.94l-17.06-7.49,57.67-131.36c12.11,2.08,19,6.87,21,20.56,5.86,39.24,13.62,78.19,20.62,117.26Z"/><path d="M590.14,579.9l-43.65,99.4L530,672.08l57.61-131.23c11.37,2.47,18.63,6.82,20.62,20,5.49,36.31,12.66,72.37,19.2,108.52.57,3.17,1.4,6.29,2.83,12.58l45.12-102.76,16,7L634,717.06c-11.35-2.23-18.67-6.17-20.66-19.64-5.49-37.09-12.81-73.91-19.42-110.83-.37-2.07-.9-4.12-1.35-6.18Z"/><path d="M1245.89,838.26l-45.16,102.85L1184.59,934l57.21-130.3c16.43,1.88,19.49,13.78,21.73,26.37q9.39,52.56,18.83,105.09c.32,1.77.77,3.5,1.85,8.38l44.92-102.29,16.85,7.4L1288.7,979.13c-11.54-2.25-19-5.93-20.94-19.51-5.3-36.33-12.56-72.37-19.08-108.53C1248.12,848,1247.34,844.86,1245.89,838.26Z"/><path d="M1192.53,381.46,1149,480.72l-16.2-7.11L1190,343.32c12.22,1.62,18.45,7.1,20.47,19.92,6.15,39.13,13.76,78,21.41,120.33l45-102.56,16.13,7.08-57.33,130.55c-11.88-1.81-18.4-7.52-20.45-20.61-6.08-38.85-13.48-77.5-20.37-116.22Z"/><path d="M888.26,1171.77c37.4,16.36,50.87,55.74,33,96.52-17.68,40.33-56.25,57-93.66,40.48s-51.19-56-33.75-96.51C811.57,1171.12,849.53,1154.84,888.26,1171.77Zm-76.17,47.41c-2.28,7-4.11,11.61-5.26,16.37-5.73,23.68,3.16,45.21,23.11,56.48,18.1,10.23,42.41,7.35,56.78-7.43a80.58,80.58,0,0,0,23.18-51.76,46.74,46.74,0,0,0-30.48-47.12c-21.19-7.83-41.62-2.66-55,14.55C819.32,1206.79,815.32,1214.15,812.09,1219.18Z"/><path d="M1708,670.26c-37.12-16.54-50.61-55.75-32.84-95.51,18.57-41.57,55.5-57.14,94.48-39.86,37.61,16.67,50.57,55.5,32.23,96.55C1783.61,672.2,1746.63,687.49,1708,670.26Zm76.1-47.7c1.07-2.43,2.32-4.8,3.17-7.3,8.32-24.27,2.53-47.2-15.23-60.61-15.7-11.84-40.41-13.64-55.53-1.95-20.65,16-31.8,37.81-29.76,64.19,2.41,31.27,34.63,51.28,64,40.86C1767.67,651.73,1777.11,638.24,1784.05,622.56Z"/><path d="M1666.68,1322.33l-16.93-7.44,26.82-61.08-68.87-30.24-26.7,60.81-17.65-7.75L1620.72,1146l17.08,7.5-23.12,52.65,69.15,30.37,23.22-52.9,17.23,7.56Z"/><path d="M1468.92,124.59l-26.77,60.95c-18.4-5.41-18.9-6.34-12.86-20q23.36-53,46.58-105.94c1.79-4.06,3.57-8.12,5.57-12.68l17.88,7.86L1475.51,109c22,9.66,42.59,19,63.49,27.46,2,.79,7.39-2.65,8.68-5.34,7.18-15,13.59-30.27,20.45-45.89l16.12,7.08-57.72,131.44-15.91-7,27.18-61.9Z"/><path d="M74.55,704.14,50.78,758.26l68.46,30.06,23.36-53.19,16.64,7.3L101.68,873.54l-16.05-7,26.74-60.91L43.5,775.34,16.82,836.09,0,828.71l57.5-131Z"/><path d="M1439.42,68.35l-20.08-4c-4.27-31.81-14.86-44.41-39.42-47.53-19.11-2.43-34,5.83-43.23,21.33a141.36,141.36,0,0,0-16.13,40.76c-4.84,21.54,4.49,38.25,23.4,47.92,18,9.18,35.48,5.66,51.39-10.35,1.3-1.31,2.51-2.71,4.45-4.82l14.4,10.69c-18.53,29.54-54.84,35.37-86.66,14.06-25.45-17-34-45.47-22.52-78.55a124.39,124.39,0,0,1,17.2-33c27.81-37.44,91.19-31.32,110,10.58C1436.3,44.6,1436.72,55.49,1439.42,68.35Z"/><path d="M368.74,874.29l-17.92-2.86a27.91,27.91,0,0,1-.44-3.23c-.56-23.5-7.88-34.7-27.42-41.87-19.25-7.06-36-3.09-50,13.2-13.15,15.31-20.85,33.38-21.49,53.71-.62,19.93,9.6,34.19,28.66,41.93,17,6.89,32.05,3.22,46.19-11.23,1.57-1.6,3.24-3.08,5.68-5.4l14,10.26c-10.46,19.54-35.4,31.65-57.53,26.06-43-10.85-65.8-38.3-51.85-88.56,6.13-22.09,17.79-40.75,38.44-52.69,32.73-18.93,94,1.2,94.44,50.6C369.54,867.15,369.07,870.1,368.74,874.29Z"/><path d="M1574.76,1167.65l-17.76-2.92c-.24-2.23-.53-4-.59-5.75-.8-21.91-8.84-32.51-30.35-40-17-5.87-35.17-.73-47.09,13.66a92.56,92.56,0,0,0-20.75,46c-3.36,22.21,4.94,38.9,23.83,47.88,20.46,9.73,36.85,6.06,52.72-11.77.72-.82,1.56-1.55,3.39-3.34l13.58,11c-14.8,26.75-46.6,30.63-66.91,23.16-40.63-14.94-56.15-48.37-41.13-90.35,9-25.25,23.42-46.12,51.22-53.34C1528.09,1093.36,1580.52,1115.17,1574.76,1167.65Z"/><path d="M665.61,310.15l6.84,12c-9.9,5.41-19.33,10.64-28.83,15.74-36,19.33-71.92,38.8-108.11,57.76-7,3.69-8.5,7.53-6.74,15.17,10.88,47.17,21.28,94.45,31.57,141.76.8,3.67,1,9.78-1,11.34-6.11,4.59-10.34,1.29-11.9-5.79-2.67-12.17-5.42-24.32-8.13-36.48q-13-58.65-26.14-117.31c-1.43-6.33-1.73-11.58,5.31-15.33C567.18,363.06,615.79,336.88,665.61,310.15Z"/><path d="M939.32,583.21q-19.4,44.2-38.82,88.41c-1.22,2.77-1.87,6.29-4,8-2.5,2.11-6.28,2.69-9.51,3.94-1-3-2.83-6-2.79-9s1.93-5.66,3.15-8.43q39.21-89.48,78.46-178.92a6.05,6.05,0,0,1,.48-1c3-4.64,3.57-13.64,12.08-10.06s3.34,10.22,1.06,15.45C966.17,522.2,952.71,552.69,939.32,583.21Z"/><path d="M159.1,888.85c5.93-2.48,9.84-5.75,13-5.14,10.75,2.09,20.27,1.39,25-9.66,3.42-8,1.09-15.66-6.72-20.82-8.82-5.82-17-4.26-27.32,5.19-.53.49-1.18.85-2.55,1.83l-10-5.59c8.5-14.32,20.85-19.32,36.1-15.35,13.91,3.63,24.42,15.84,24.94,29,.53,13.81-5.66,21.5-20.37,26.17,2,8.11,6.25,16.42,5.28,24.06-1,7.48-5.89,15.65-11.44,21.11-11.43,11.22-29.85,10.67-45.24.58-12-7.89-16.66-21.76-11.85-37.84L139,905c.71,21.77,5.12,28.77,18.78,30.71,11.2,1.6,21.62-5.64,24.68-17.14C185.73,906.28,180.41,898.76,159.1,888.85Z"/><path d="M1722.86,1300.56l-9.43-6.64c8.11-13.79,20.41-19.12,34.46-15.45,15.51,4,26.21,16.45,26.18,30.35,0,13.6-6.85,21.34-21.45,25.23,2.27,7.54,6.87,15.3,6.16,22.54-.75,7.57-5.12,16.09-10.54,21.62-12,12.23-32.58,12-47,1.2a31.54,31.54,0,0,1-10.4-37.72l10.29,3.1c1.35,21.77,6.07,29,19.71,30.59,10.62,1.26,20.35-5.58,23.83-16.74,3.77-12.06-1.43-19.93-19.24-28.78,1.33-5.61,2.93-9.1,10.51-7,12.47,3.37,20.16-.18,23.56-9.34,3-8,1-14.93-5.83-20.14-8.46-6.44-17.58-5.32-26.44,3C1726.09,1297.36,1725,1298.43,1722.86,1300.56Z"/><path d="M1587.05,229.58c1.45-5.71,3.47-9.18,10.85-7.1,9.79,2.76,19.15,1.67,23.63-9.49,3.45-8.59.63-15.93-6.75-20.77-9.18-6-17.92-4.22-25.49,3.63-1.29,1.34-2.77,2.5-4.59,4.13l-9-6.31c6.6-13.32,19.5-19.13,34.09-15.8,14.36,3.29,25.72,15.83,26.36,29.12.68,13.89-6.31,22.34-21.08,26.59,2.29,7.54,6.79,15.21,6.23,22.51s-4.86,15.3-9.82,21c-10.72,12.3-30.38,12.92-45.82,3-13.92-8.95-18.71-22.49-13.12-38.65L1563,244.3c2.48,22.62,7.79,30.44,20.65,30.8a23.08,23.08,0,0,0,23.71-18.66C1609.81,244.86,1603,235.75,1587.05,229.58Z"/><path d="M1296.71,257.59q-16.65,37.95-33.32,75.88c-2.12,4.81-4.24,11.49-10.79,7.69-2.41-1.39-3.26-9.47-1.68-13.15,21.63-50.41,43.82-100.58,65.84-150.82,2.35-5.36,5-11.76,11.87-8,2.15,1.19,2.3,9.52.67,13.46C1318.85,207.82,1307.65,232.66,1296.71,257.59Z"/><path d="M348.5,774.61c.66-3.77.17-8.47,2.28-11.08,2.68-3.31,7.4-5,11.33-7.25q61-34.86,122.08-69.65c2.3-1.31,4.61-3.33,7-3.49,2.56-.17,6.88.86,7.49,2.48.95,2.49.21,6.47-1.34,8.82s-4.86,3.41-7.48,4.91Q425.94,736,362.05,772.71c-3.22,1.87-5.58,5.24-8.34,7.92C352,778.62,350.24,776.61,348.5,774.61Z"/><path d="M1336.64,970.44c1.5,1.66,3.1,3.23,4.49,5,31.6,39.62,63.3,79.17,94.53,119.1,2.15,2.75.75,8.28,1,12.52-4-1.58-9.43-2-11.79-4.9-27.46-33.75-54.45-67.89-81.57-101.92-5-6.2-10.36-12.08-14.71-18.67-1.47-2.22-1.16-6.46-.15-9.23s3.9-4.55,6-6.79C1335.15,967.17,1335.89,968.81,1336.64,970.44Z"/><path d="M644.94,364l6.71,12.27L569,423.42c-2.34-4-4.34-7.36-7.07-12Z"/></g></g></g></svg>