<svg xmlns="http://www.w3.org/2000/svg" xmlns:xlink="http://www.w3.org/1999/xlink" width="180" height="32" viewBox="0 0 180 32" version="1.1">
    <!-- Generator: Sketch 43.1 (39012) - http://www.bohemiancoding.com/sketch -->
    <title>Combined Shape</title>
    <desc>Created with Sketch.</desc>
    <defs/>
    <g id="Page-1" stroke="none" stroke-width="1" fill="none" fill-rule="evenodd">
        <g id="Desktop-HD" transform="translate(-41.000000, -26.000000)" fill="#CCAE00">
            <path d="M90.1409861,56.6699275 C89.7557983,56.8668656 88.9477728,57.0666999 87.9283284,57.0666999 C85.5708631,57.0666999 83.8042123,55.5722871 83.8042123,52.8122571 C83.8042123,50.1825539 85.5824477,48.4101108 88.1773972,48.4101108 C89.2142185,48.4101108 89.8803327,48.6389065 90.1699476,48.783714 L89.8919173,49.6728317 C89.5009372,49.4701013 88.913019,49.3223977 88.2179433,49.3223977 C86.2543543,49.3223977 84.9481911,50.573534 84.9481911,52.7775034 C84.9481911,54.8424575 86.1298199,56.1428284 88.1513318,56.1428284 C88.8232384,56.1428284 89.5009372,56.0067094 89.9324634,55.7981867 L90.1409861,56.6699275 Z M102.13278,52.6535482 C102.13278,55.5207356 100.38061,57.064383 98.2403562,57.064383 C96.01901,57.064383 94.4724665,55.3353821 94.4724665,52.8070441 C94.4724665,50.1367948 96.1145829,48.4048977 98.353306,48.4048977 C100.655744,48.4048977 102.13278,50.1541717 102.13278,52.6535482 Z M95.6164453,52.7780826 C95.6164453,54.5765911 96.5895513,56.1839537 98.3040715,56.1839537 C100.021488,56.1839537 100.988802,54.6055526 100.988802,52.7056789 C100.988802,51.0201202 100.119957,49.2824308 98.3156561,49.2824308 C96.5171476,49.2824308 95.6164453,50.9506126 95.6164453,52.7780826 Z M107.246221,48.5470986 L111.761317,48.5470986 L111.761317,49.4564894 L108.343861,49.4564894 L108.343861,52.2396885 L111.500664,52.2396885 L111.500664,53.1345985 L108.343861,53.1345985 L108.343861,56.9314498 L107.246221,56.9314498 L107.246221,48.5470986 Z M117.026516,48.5470986 L121.541612,48.5470986 L121.541612,49.4564894 L118.118364,49.4564894 L118.118364,52.2396885 L121.280959,52.2396885 L121.280959,53.1345985 L118.118364,53.1345985 L118.118364,56.9314498 L117.026516,56.9314498 L117.026516,48.5470986 Z M131.145242,52.9987691 L127.898659,52.9987691 L127.898659,56.0194525 L131.53043,56.0194525 L131.53043,56.9288432 L126.801018,56.9288432 L126.801018,48.5473882 L131.34218,48.5473882 L131.34218,49.456779 L127.898659,49.456779 L127.898659,52.1038591 L131.145242,52.1038591 L131.145242,52.9987691 Z M140.982012,52.9987691 L137.741221,52.9987691 L137.741221,56.0194525 L141.372992,56.0194525 L141.372992,56.9288432 L136.643581,56.9288432 L136.643581,48.5473882 L141.184742,48.5473882 L141.184742,49.456779 L137.741221,49.456779 L137.741221,52.1038591 L140.982012,52.1038591 L140.982012,52.9987691 Z M159.246865,56.5566881 C158.766104,56.7420416 157.792998,57.0142796 156.660604,57.0142796 C155.394986,57.0142796 154.349477,56.6928071 153.52697,55.9108469 C152.808725,55.2157711 152.362719,54.0949615 152.362719,52.7887983 C152.362719,50.2894218 154.088823,48.4619518 156.898088,48.4619518 C157.865401,48.4619518 158.641569,48.6762669 158.997796,48.8471397 L158.725558,49.7304651 C158.279551,49.5190462 157.720594,49.3684465 156.872022,49.3684465 C154.83603,49.3684465 153.506697,50.6398558 153.506697,52.7395638 C153.506697,54.8653371 154.772314,56.1222658 156.735903,56.1222658 C157.448356,56.1222658 157.929117,56.0180044 158.178186,55.89347 L158.178186,53.3998858 L156.486835,53.3998858 L156.486835,52.5281449 L159.246865,52.5281449 L159.246865,56.5566881 Z M165.967378,54.2939269 L165.10143,56.9294225 L163.974828,56.9294225 L166.839119,48.5479675 L168.133697,48.5479675 L170.9893,56.9294225 L169.830841,56.9294225 L168.935931,54.2939269 L165.967378,54.2939269 Z M168.727408,53.4511476 L167.896213,51.0357594 C167.702171,50.4941795 167.583429,49.9902496 167.461791,49.5094889 L167.432829,49.5094889 C167.308295,49.9902496 167.183761,50.5144526 167.007096,51.0183825 L166.193278,53.4511476 L168.727408,53.4511476 Z M175.928103,48.5470986 L177.025744,48.5470986 L177.025744,56.0191629 L180.605384,56.0191629 L180.605384,56.9314498 L175.928103,56.9314498 L175.928103,48.5470986 Z M185.521596,48.5470986 L186.613445,48.5470986 L186.613445,56.0191629 L190.193085,56.0191629 L190.193085,56.9314498 L185.521596,56.9314498 L185.521596,48.5470986 Z M199.453521,52.9987691 L196.206938,52.9987691 L196.206938,56.0194525 L199.838709,56.0194525 L199.838709,56.9288432 L195.11509,56.9288432 L195.11509,48.5473882 L199.650459,48.5473882 L199.650459,49.456779 L196.206938,49.456779 L196.206938,52.1038591 L199.453521,52.1038591 L199.453521,52.9987691 Z M204.968947,48.6612069 C205.516319,48.5627378 206.309864,48.4903341 207.045486,48.4903341 C208.198153,48.4903341 208.956944,48.7104414 209.466666,49.1738252 C209.877919,49.5416362 210.126988,50.1208659 210.126988,50.7753956 C210.126988,51.873036 209.431912,52.6028656 208.560172,52.9011689 L208.560172,52.9359227 C209.194428,53.1618223 209.579616,53.7555329 209.776554,54.6272737 C210.054584,55.7973178 210.251522,56.6082395 210.428188,56.9297121 L209.307378,56.9297121 C209.171259,56.6806433 208.985905,55.9739829 208.760006,54.9284732 C208.510937,53.7729097 208.050449,53.3384874 207.068655,53.3037336 L206.04921,53.3037336 L206.04921,56.9297121 L204.968947,56.9297121 L204.968947,48.6612069 Z M206.04921,52.4783312 L207.158435,52.4783312 C208.311103,52.4783312 209.046725,51.8440746 209.046725,50.8825531 C209.046725,49.8080819 208.261868,49.3331134 207.117889,49.3331134 C206.596583,49.3331134 206.234564,49.3678672 206.04921,49.4171018 L206.04921,52.4783312 Z M217.107576,56.9300017 L217.107576,53.3706347 L214.448911,48.5456505 L215.694255,48.5456505 L216.870092,50.8596735 C217.17998,51.4939302 217.440633,52.0036524 217.701286,52.5915706 L217.730248,52.5915706 C217.950355,52.0441985 218.251555,51.4939302 218.573027,50.8596735 L219.777825,48.5456505 L221,48.5456505 L218.199424,53.3619462 L218.199424,56.9300017 L217.107576,56.9300017 Z M93.9705639,40.5768968 C93.2870727,40.9331231 91.8592713,41.2777648 90.0607628,41.2777648 C85.8932045,41.2777648 82.771156,38.6480616 82.771156,33.7709468 C82.771156,29.1168355 85.9105814,26.0005792 90.5038736,26.0005792 C92.319759,26.0005792 93.50718,26.3973516 94.0111099,26.6551089 L93.5303492,28.2161332 C92.826585,27.8656991 91.7926599,27.6050457 90.5646927,27.6050457 C87.0922102,27.6050457 84.7897718,29.8177035 84.7897718,33.7043354 C84.7897718,37.353483 86.8778951,39.6559214 90.4575352,39.6559214 C91.639164,39.6559214 92.826585,39.4184372 93.5969607,39.044834 L93.9705639,40.5768968 Z M105.429467,36.3864589 L103.897404,41.0405702 L101.92223,41.0405702 L106.970218,26.2441454 L109.255279,26.2441454 L114.300371,41.0405702 L112.258586,41.0405702 L110.680185,36.3864589 L105.429467,36.3864589 Z M110.306581,34.892046 L108.835338,30.631811 C108.508073,29.6644972 108.287966,28.7898603 108.067858,27.9354963 L108.027312,27.9354963 C107.801413,28.7898603 107.587098,29.7108356 107.274314,30.6086418 L105.832031,34.892046 L110.306581,34.892046 Z M123.022413,26.2432765 L130.992615,26.2432765 L130.992615,27.8448469 L124.95704,27.8448469 L124.95704,32.7596116 L130.535023,32.7596116 L130.535023,34.3438051 L124.95704,34.3438051 L124.95704,41.0397014 L123.022413,41.0397014 L123.022413,26.2432765 Z M140.286067,26.2432765 L148.256269,26.2432765 L148.256269,27.8448469 L142.220695,27.8448469 L142.220695,32.7596116 L147.792885,32.7596116 L147.792885,34.3438051 L142.220695,34.3438051 L142.220695,41.0397014 L140.286067,41.0397014 L140.286067,26.2432765 Z M158.256092,36.3864589 L156.718237,41.0405702 L154.743063,41.0405702 L159.791051,26.2441454 L162.076112,26.2441454 L167.126996,41.0405702 L165.079419,41.0405702 L163.50681,36.3864589 L158.256092,36.3864589 Z M163.127414,34.892046 L161.656171,30.631811 C161.328906,29.6644972 161.108799,28.7898603 160.888691,27.9354963 L160.848145,27.9354963 C160.622246,28.7898603 160.407931,29.7108356 160.100939,30.6086418 L158.652864,34.892046 L163.127414,34.892046 Z M175.841798,41.0397014 L175.841798,26.2432765 L177.776425,26.2432765 L177.776425,41.0397014 L175.841798,41.0397014 Z M187.687916,41.0408598 L187.687916,26.244435 L189.799208,26.244435 L194.514139,33.7280838 C195.594402,35.462877 196.471936,37.0239013 197.152531,38.535691 L197.21335,38.5125218 C197.039581,36.5373483 196.999035,34.7388398 196.999035,32.4306091 L196.999035,26.244435 L198.797543,26.244435 L198.797543,41.0408598 L196.862916,41.0408598 L192.168258,33.5282495 C191.137229,31.8832369 190.149642,30.191886 189.425605,28.5903156 L189.36189,28.6134848 C189.469047,30.4815008 189.492217,32.2568401 189.492217,34.7156706 L189.492217,41.0408598 L187.687916,41.0408598 Z M211.099515,36.3864589 L209.56166,41.0405702 L207.58359,41.0405702 L212.640266,26.2441454 L214.919535,26.2441454 L219.964627,41.0405702 L217.922842,41.0405702 L216.344441,36.3864589 L211.099515,36.3864589 Z M215.970837,34.892046 L214.499594,30.631811 C214.172329,29.6644972 213.952222,28.7898603 213.732114,27.9354963 L213.691568,27.9354963 C213.471461,28.7898603 213.251354,29.7108356 212.938569,30.6086418 L211.496287,34.892046 L215.970837,34.892046 Z M41,57.0669895 L41,26 L72.0669895,26 L72.0669895,57.0669895 L41,57.0669895 Z M43.0446811,55.0252045 L70.0252045,55.0252045 L70.0252045,28.0446811 L43.0446811,28.0446811 L43.0446811,55.0252045 Z M55.9924941,44.4064745 C55.8129329,44.5860357 55.5291103,44.921989 55.4161605,44.9335736 C55.1033764,44.9886004 54.7819039,45.1594732 54.4980813,45.4925303 C54.4488468,45.4403997 54.3590662,45.4751535 54.2721817,45.5156995 C54.0694513,45.6691954 53.8435516,45.9385373 53.6610943,46.126787 C53.695848,46.0341102 53.7595633,45.9790834 53.8203825,45.9153681 C53.8551362,45.8255875 53.6234443,45.9617065 53.655302,45.8777182 C53.753771,45.7242223 53.9622937,45.5649341 54.0868282,45.446192 L54.0346975,45.3911651 L53.5423522,45.8893028 C53.3338294,46.0456948 53.1977104,46.031214 53.2324642,45.9385373 C53.42361,45.6460262 53.7595633,45.3622036 54.005736,45.1189271 C53.9449169,45.1826424 53.9159554,45.1536809 53.8927862,45.1305117 L53.6437174,45.3737882 L54.6921233,44.3282785 L54.6399926,44.2819401 L54.5154582,44.4006822 L54.414093,44.299317 C54.6979156,43.9720522 55.3987836,43.3146264 55.0975841,43.2595995 L54.9730497,43.3812378 L54.8948537,43.3088341 L54.0231129,44.0328713 L53.9449169,43.9546753 L54.1302704,43.7664256 C53.9449169,43.9546753 53.8087979,43.9372984 53.7248095,43.9778445 C53.4351946,44.0560405 53.0557991,44.5368012 52.6619229,44.8814429 C52.5982076,44.9451582 52.5489731,44.8930275 52.5258039,44.864066 C52.3056966,45.1420963 52.0682124,45.272423 51.7959744,45.4925303 C52.7053651,44.435436 53.8145902,43.5752798 54.6689541,42.4602624 C54.7934885,42.3415203 54.6573695,42.3241434 54.7761116,42.2054013 L54.9643613,42.0200478 C54.8485153,42.0316324 54.8600999,41.9186826 54.9238152,41.8549673 C55.4277451,41.2496722 55.9924941,40.5835579 56.5804124,40.1925778 C56.7947274,40.0390819 57.0061463,39.8826899 57.2494228,39.6336211 L57.1972921,39.5814904 C57.2494228,39.6336211 57.3218265,39.456956 57.4058148,39.4222022 L57.4579455,39.4743329 C57.486907,39.4975021 57.5477261,39.4337868 57.6114414,39.37876 L57.6606759,39.4279945 C57.7562488,39.2773948 57.9329139,39.2078872 57.9995254,39.0341182 L58.051656,39.0833528 C58.0922021,38.9935722 58.2659711,38.9240646 58.2717634,38.8111148 L58.323894,38.8632455 C58.3007248,38.834284 58.2717634,38.8111148 58.3354786,38.7502956 C58.5208322,38.5678383 58.5555859,38.4780576 58.5555859,38.4780576 C58.7409395,38.2927041 59.1319196,37.9480624 59.1608811,37.9741277 C59.256454,37.8293203 59.3983653,37.8380087 59.4939382,37.6932013 C59.5663419,37.7713973 59.5228997,37.9683354 59.6966686,37.8959317 C60.0210373,37.7250589 60.9535973,37.5570823 60.8464397,37.8177357 C60.8406475,37.9306855 60.6205401,38.4490962 60.6089555,38.5678383 C60.5452403,38.6257612 60.5684095,39.0167413 60.6697747,39.1181066 C60.6089555,39.1789257 60.5452403,39.2368487 60.5742017,39.2658102 C60.675567,39.3671754 60.9825587,39.0601836 61.1273662,38.9588184 C61.240316,38.9530261 61.2808621,39.1123143 61.2750698,39.2310564 C61.2750698,39.2310564 61.3648504,39.6944402 61.1447431,39.9666782 C60.7045285,40.508258 60.1166102,41.148307 59.5518612,41.5624563 L59.198531,41.7072637 C58.0400714,42.5123931 56.9829771,43.6708527 55.8129329,44.5860357 L55.9924941,44.4064745 Z" id="Combined-Shape"/>
        </g>
    </g>
</svg>